<?xml version="1.0" encoding="UTF-8"?>
<svg xmlns="http://www.w3.org/2000/svg" xmlns:xlink="http://www.w3.org/1999/xlink" viewBox="0 0 4746.56 1000">
  <defs>
    <style>
      .cls-1 {
        letter-spacing: 0em;
      }

      .cls-2, .cls-3 {
        fill: #44911b;
      }

      .cls-4 {
        fill: url(#linear-gradient);
      }

      .cls-3 {
        font-family: Montserrat-Bold, Montserrat;
        font-size: 650px;
        font-weight: 700;
      }

      .cls-5 {
        letter-spacing: -.02em;
      }

      .cls-6 {
        letter-spacing: 0em;
      }
    </style>
    <linearGradient id="linear-gradient" x1="500" y1="0" x2="500" y2="1000" gradientUnits="userSpaceOnUse">
      <stop offset="0" stop-color="#aee2ff"/>
      <stop offset="1" stop-color="#a8f7c1"/>
    </linearGradient>
  </defs>
  <g id="Layer_1" data-name="Layer 1">
    <circle class="cls-4" cx="500" cy="500" r="500"/>
  </g>
  <g id="Layer_4" data-name="Layer 4">
    <text class="cls-3" transform="translate(1316.54 730.49)"><tspan x="0" y="0">Plan</tspan><tspan class="cls-5" x="1521.63" y="0">t</tspan><tspan x="1793.33" y="0">o</tspan><tspan class="cls-6" x="2219.08" y="0">p</tspan><tspan class="cls-1" x="2663.03" y="0">.ia</tspan></text>
  </g>
  <g id="Layer_3" data-name="Layer 3">
    <path class="cls-2" d="M470.96,620.43l-2.57-2c-114.48-14.01-202.23-109.9-208.85-224.66-4.59-79.57,3.41-163.35-.02-243.36,1.06-25.91,44.41-14.82,61.16-10.96,35.55,8.2,69.69,25.07,97.83,48.21l2.23.02c2.97-7.72,9.36-15.99,14.63-22.66,9.94-12.57,43.39-49.16,57.28-53.74,4.52-1.49,7.16-1.73,11.82-.45,7.17,1.97,28.9,22.55,34.98,28.9,13.46,14.08,26.2,31.4,36.52,47.92,1.35.91,22.97-15.54,26.85-17.93,27.3-16.79,69.58-33,101.64-35.26,15.85-1.11,32.19-3.14,32.75,17.41-10.82,149.46,42.67,312.35-92.13,419.08-34.27,27.13-75.79,41.75-118.71,48.61l-.65,184.15c4.4.85,2.43-1.28,3.43-3.34,44.86-92.19,129.76-169.73,234.83-182.01,12.57-1.47,39.67-3.99,51.18-1.42,5.29,1.18,9.85,7.23,9.95,12.57,1.71,91.44-53.97,187.04-123.75,242.61-197.61,157.39-502.01,34.31-527-218.25-1.25-12.6-6.92-35.32,9.84-37.29,96.31-11.3,209.64,63.09,259.72,141.92l27.04,45.21v-183.29ZM499.85,286.56c1.69-7.94,6.38-16.63,10.4-23.84,3.35-6,23.22-34.95,23.09-37.63-.32-6.47-31.33-52.17-35.71-51.1-13.03,16.3-26.57,32.8-34.21,52.49l36.42,60.07ZM470.95,564.91v-171.11c-4.48-90.62-69.14-175.95-158.17-196.99v192.4c5.63,89.13,70.99,159.82,158.17,175.7ZM683.91,196.81c-89.22,20.34-153.43,106.96-158.17,197v171.1c76.33-13.07,140.03-72.2,154.43-149.01,1.76-9.39,2.05-18.83,3.74-28.21v-190.88ZM443.58,881.29c-31.15-97.45-106.3-188.65-211.42-206.85,21.06,103.88,107.98,186.83,211.42,206.85ZM764.53,674.44c-105.85,16.57-180.06,109.82-211.42,206.85,102.75-21.45,189.6-103.4,211.42-206.85Z"/>
  </g>
</svg>